<?xml version="1.0" encoding="utf-8"?>
<!-- Generator: Adobe Illustrator 19.2.0, SVG Export Plug-In . SVG Version: 6.00 Build 0)  -->
<svg version="1.1" id="Layer_1" xmlns="http://www.w3.org/2000/svg" xmlns:xlink="http://www.w3.org/1999/xlink" x="0px" y="0px"
	 viewBox="0 0 302.8 133.2" style="enable-background:new 0 0 302.8 133.2;" xml:space="preserve">
<style type="text/css">
	.st0{fill:#FFFFFF;}
</style>
<g>
	<path d="M61.7,43.5c1.5,1.4,2.4,3.2,2.4,5.3v20.3h-1.4V49.1c-0.1-1.8-0.8-3.3-2-4.5c-1.2-1.2-2.9-1.9-5.1-2c-2,0-3.8,0.5-5.5,1.4
		c-1.7,0.9-3.1,2.1-4.2,3.7c-1.1,1.6-1.7,3.3-1.8,5.2v16.2h-1.4V49.1c-0.1-1.8-0.8-3.3-2-4.5c-1.2-1.2-3-1.9-5.1-2
		c-2,0-3.9,0.5-5.7,1.4c-1.8,0.9-3.2,2.2-4.2,3.9c-1.1,1.6-1.6,3.5-1.6,5.5v15.8h-1.4V41.9h1.1l0.2,7.1c1-2.4,2.5-4.2,4.6-5.6
		c2.1-1.4,4.5-2.1,7.1-2.1c2.2,0,4.1,0.7,5.8,2c1.7,1.3,2.6,3,2.8,5c1-2.2,2.5-3.9,4.6-5.1c2-1.2,4.3-1.8,6.9-1.8
		C58.1,41.4,60.1,42.1,61.7,43.5z"/>
	<path d="M97.3,41.9v27.2h-1.4v-7.8c-1,2.4-2.7,4.4-5.1,5.9c-2.4,1.5-5,2.3-7.9,2.3c-2.5,0-4.9-0.6-7.1-1.9
		c-2.2-1.2-3.9-2.9-5.1-5.1c-1.2-2.1-1.9-4.5-1.9-7.1c0-2.9,0.6-5.5,1.9-7.6c1.3-2.1,3-3.8,5.1-4.9c2.2-1.1,4.6-1.7,7.2-1.7
		c2.8,0,5.3,0.8,7.6,2.3c2.3,1.6,4,3.6,5.1,6.1l0.3-7.8H97.3z M89.5,66.7c1.9-1.1,3.5-2.5,4.6-4.4c1.2-1.9,1.7-4,1.7-6.3v-3
		c-0.6-3-2.1-5.5-4.5-7.5c-2.4-2-5.2-3.1-8.3-3.1c-2.4,0-4.5,0.5-6.4,1.6c-1.9,1.1-3.5,2.6-4.6,4.5c-1.1,2-1.7,4.2-1.7,6.8
		c0,2.4,0.6,4.5,1.7,6.5c1.2,2,2.7,3.5,4.6,4.7c1.9,1.2,4.1,1.7,6.4,1.7C85.4,68.3,87.6,67.8,89.5,66.7z"/>
	<path d="M130.6,41.9v27.8c0,3.6-1.1,6.6-3.3,9c-2.2,2.4-5.8,3.5-10.9,3.5c-2.1,0-4.1-0.4-6-1.2c-1.9-0.8-4-2.3-6.2-4.5l0.8-0.9
		c2.2,2.1,4.1,3.4,5.9,4.1c1.8,0.7,3.6,1,5.4,1c4.6,0,7.9-1,9.8-3c1.9-2,2.9-4.8,3.1-8.2l0.1-8.4c-1.2,2.5-2.9,4.5-5.3,6
		s-5,2.3-7.7,2.3c-2.5,0-4.9-0.6-7.1-1.9c-2.2-1.2-3.9-3-5.1-5.1c-1.2-2.2-1.9-4.5-1.9-7.1c0-2.7,0.6-5.2,1.9-7.3
		c1.3-2.1,3-3.8,5.1-5c2.2-1.2,4.5-1.8,7.1-1.8c2.8,0,5.3,0.8,7.7,2.3c2.3,1.5,4,3.5,5.1,5.9l0.4-7.6H130.6z M122.8,66.6
		c2-1.1,3.5-2.6,4.7-4.5c1.2-1.9,1.8-3.8,1.8-5.9v-3.1c-0.5-3-2-5.6-4.5-7.6c-2.4-2-5.3-3.1-8.4-3.1c-2.4,0-4.5,0.5-6.4,1.6
		s-3.5,2.6-4.6,4.6c-1.1,2-1.7,4.2-1.7,6.7c0,2.4,0.6,4.5,1.7,6.5c1.2,2,2.7,3.5,4.6,4.7c1.9,1.2,4.1,1.7,6.4,1.7
		C118.7,68.3,120.8,67.7,122.8,66.6z"/>
	<path d="M164,41.9v27.2h-1.4v-7.8c-1,2.4-2.7,4.4-5.1,5.9c-2.4,1.5-5,2.3-7.9,2.3c-2.5,0-4.9-0.6-7.1-1.9c-2.2-1.2-3.9-2.9-5.1-5.1
		c-1.2-2.1-1.9-4.5-1.9-7.1c0-2.9,0.6-5.5,1.9-7.6c1.3-2.1,3-3.8,5.1-4.9c2.2-1.1,4.6-1.7,7.2-1.7c2.8,0,5.3,0.8,7.6,2.3
		c2.3,1.6,4,3.6,5.1,6.1l0.3-7.8H164z M156.2,66.7c1.9-1.1,3.5-2.5,4.6-4.4c1.2-1.9,1.7-4,1.7-6.3v-3c-0.6-3-2.1-5.5-4.5-7.5
		c-2.4-2-5.2-3.1-8.3-3.1c-2.4,0-4.5,0.5-6.4,1.6c-1.9,1.1-3.5,2.6-4.6,4.5c-1.1,2-1.7,4.2-1.7,6.8c0,2.4,0.6,4.5,1.7,6.5
		c1.2,2,2.7,3.5,4.6,4.7c1.9,1.2,4.1,1.7,6.4,1.7C152.1,68.3,154.3,67.8,156.2,66.7z"/>
	<path d="M192.4,43.2c2.2,1.3,3.9,3,5.1,5.1c1.2,2.2,1.9,4.5,1.9,7.1c0,2.6-0.6,5-1.9,7.1c-1.2,2.1-3,3.8-5.1,5.1
		c-2.2,1.2-4.5,1.9-7.1,1.9c-2.8,0-5.4-0.7-7.7-2.2c-2.3-1.5-4-3.5-5.2-5.9v20.7h-1.4V41.9h1.4l0.1,7.8c1.2-2.5,2.9-4.5,5.2-6
		c2.3-1.5,4.9-2.3,7.7-2.3C187.9,41.3,190.2,41.9,192.4,43.2z M191.6,66.6c1.9-1.2,3.5-2.7,4.6-4.7c1.2-2,1.7-4.1,1.7-6.4
		c0-2.4-0.6-4.5-1.7-6.5c-1.2-2-2.7-3.6-4.6-4.7c-1.9-1.2-4.1-1.7-6.4-1.7c-2.3,0-4.4,0.6-6.4,1.7c-1.9,1.2-3.5,2.7-4.7,4.6
		c-1.2,1.9-1.8,4.1-1.8,6.4V56c0,2.2,0.7,4.3,1.8,6.2c1.2,1.9,2.7,3.4,4.6,4.5c1.9,1.1,4,1.7,6.3,1.7
		C187.5,68.3,189.6,67.7,191.6,66.6z"/>
	<path d="M204,48.3c1.3-2.2,3-3.9,5.1-5.1c2.2-1.3,4.5-1.9,7.1-1.9c2.6,0,5,0.6,7.2,1.9c2.2,1.3,3.9,3,5.2,5.1
		c1.3,2.2,1.9,4.5,1.9,7.1c0,2.6-0.6,5-1.9,7.1c-1.3,2.2-3,3.9-5.2,5.1c-2.2,1.2-4.6,1.9-7.2,1.9c-2.6,0-5-0.6-7.2-1.8
		c-2.2-1.2-3.9-2.9-5.1-5.1c-1.2-2.2-1.9-4.6-1.9-7.2C202.1,52.8,202.7,50.4,204,48.3z M205.2,61.9c1.1,2,2.7,3.5,4.6,4.7
		c1.9,1.2,4.1,1.7,6.4,1.7c2.3,0,4.4-0.6,6.4-1.7c1.9-1.2,3.5-2.7,4.6-4.7c1.2-2,1.7-4.1,1.7-6.5c0-2.3-0.6-4.5-1.7-6.4
		c-1.2-2-2.7-3.6-4.6-4.7c-1.9-1.2-4.1-1.7-6.4-1.7c-2.4,0-4.5,0.6-6.5,1.8c-2,1.2-3.5,2.8-4.6,4.8c-1.1,2-1.7,4.1-1.7,6.2
		C203.5,57.7,204.1,59.9,205.2,61.9z"/>
	<path d="M242,52.9l-5.2,4.9v11.2h-1.4V14.9h1.4v41.3l15.9-14.8l0.9,0.8L243.1,52l12.5,17.1h-1.7L242,52.9z"/>
	<path d="M283.8,41.9v27.2h-1.4v-7.8c-1,2.4-2.7,4.4-5.1,5.9c-2.4,1.5-5,2.3-7.9,2.3c-2.5,0-4.9-0.6-7.1-1.9
		c-2.2-1.2-3.9-2.9-5.1-5.1c-1.2-2.1-1.9-4.5-1.9-7.1c0-2.9,0.6-5.5,1.9-7.6c1.3-2.1,3-3.8,5.1-4.9c2.2-1.1,4.6-1.7,7.2-1.7
		c2.8,0,5.3,0.8,7.6,2.3c2.3,1.6,4,3.6,5.1,6.1l0.3-7.8H283.8z M276.1,66.7c1.9-1.1,3.5-2.5,4.6-4.4c1.2-1.9,1.7-4,1.7-6.3v-3
		c-0.6-3-2.1-5.5-4.5-7.5c-2.4-2-5.2-3.1-8.3-3.1c-2.4,0-4.5,0.5-6.4,1.6c-1.9,1.1-3.5,2.6-4.6,4.5c-1.1,2-1.7,4.2-1.7,6.8
		c0,2.4,0.6,4.5,1.7,6.5c1.2,2,2.7,3.5,4.6,4.7c1.9,1.2,4.1,1.7,6.4,1.7C272,68.3,274.1,67.8,276.1,66.7z"/>
</g>
<g>
	<g>
		<rect y="97" width="302.8" height="36"/>
	</g>
	<g>
		<g>
			<path class="st0" d="M22.7,110.6v7.2h4.2v1.7H21v-8.8H22.7z"/>
		</g>
		<g>
			<path class="st0" d="M42.4,110.6v8.8h-1.7v-8.8H42.4z"/>
		</g>
		<g>
			<path class="st0" d="M62.4,110.6v1.7h-3.8v2h3.3v1.7h-3.3v3.5h-1.7v-8.8H62.4z"/>
		</g>
		<g>
			<path class="st0" d="M82.2,110.6v1.7h-4.3v1.9h3.8v1.7h-3.8v1.9h4.5v1.7h-6.2v-8.8H82.2z"/>
		</g>
		<g>
			<path class="st0" d="M99.2,112.1c-0.4,0-0.7,0.1-0.9,0.2c-0.2,0.2-0.3,0.4-0.3,0.7c0,0.3,0.2,0.5,0.5,0.7
				c0.3,0.2,0.7,0.4,1.2,0.6c0.4,0.2,0.8,0.3,1.1,0.5s0.5,0.5,0.7,0.8c0.2,0.3,0.3,0.8,0.3,1.3c0,0.5-0.1,0.9-0.4,1.3
				s-0.6,0.7-1,0.9c-0.5,0.2-1,0.3-1.6,0.3c-0.5,0-1.1-0.1-1.6-0.2c-0.5-0.2-1-0.4-1.5-0.7l0.8-1.4c0.3,0.2,0.7,0.4,1,0.6
				c0.4,0.1,0.7,0.2,1.1,0.2c0.4,0,0.7-0.1,1-0.2c0.3-0.2,0.4-0.4,0.4-0.8c0-0.5-0.4-0.9-1.3-1.2c-0.5-0.2-0.9-0.4-1.3-0.6
				c-0.3-0.2-0.6-0.4-0.9-0.8c-0.2-0.3-0.4-0.8-0.4-1.3c0-0.8,0.2-1.4,0.8-1.8s1.2-0.7,2-0.8c0.7,0,1.2,0.1,1.6,0.2
				c0.4,0.1,0.9,0.4,1.3,0.6l-0.7,1.3C100.5,112.3,99.8,112.1,99.2,112.1z"/>
		</g>
		<g>
			<path class="st0" d="M121.3,110.6v1.7h-2.1v7.2h-1.7v-7.2h-2.1v-1.7H121.3z"/>
		</g>
		<g>
			<path class="st0" d="M142.8,110.6l-3.3,6.1v2.7h-1.7v-2.7l-3.3-6.1h2.1l2,4.1l2-4.1H142.8z"/>
		</g>
		<g>
			<path class="st0" d="M158.1,110.6v7.2h4.2v1.7h-5.9v-8.8H158.1z"/>
		</g>
		<g>
			<path class="st0" d="M182,110.6v1.7h-4.3v1.9h3.8v1.7h-3.8v1.9h4.5v1.7H176v-8.8H182z"/>
		</g>
		<g>
			<path class="st0" d="M218.1,115.6c0.3,0.3,0.4,0.8,0.4,1.2c0,0.9-0.3,1.6-0.9,2c-0.6,0.4-1.3,0.6-2.2,0.6h-2.9v-8.8h2.6
				c0.9,0,1.7,0.2,2.2,0.6s0.8,0.9,0.8,1.6c0,0.4-0.1,0.8-0.3,1.2c-0.2,0.3-0.4,0.6-0.8,0.8C217.4,115,217.8,115.2,218.1,115.6z
				 M214.2,114.2h1.1c0.3,0,0.6-0.1,0.7-0.3c0.2-0.2,0.3-0.4,0.3-0.7c0-0.3-0.1-0.5-0.3-0.7s-0.5-0.2-0.8-0.2h-0.9V114.2z
				 M216.3,117.5c0.3-0.2,0.4-0.4,0.4-0.7c0-0.6-0.5-0.9-1.5-0.9h-1v1.9h1.1C215.7,117.8,216,117.7,216.3,117.5z"/>
		</g>
		<g>
			<path class="st0" d="M234.2,110.6v7.2h4.2v1.7h-5.9v-8.8H234.2z"/>
		</g>
		<g>
			<path class="st0" d="M252.1,112.7c0.4-0.7,1-1.2,1.6-1.7s1.4-0.6,2.2-0.6s1.6,0.2,2.2,0.6s1.2,1,1.7,1.7c0.4,0.7,0.6,1.4,0.6,2.2
				c0,0.8-0.2,1.6-0.6,2.3c-0.4,0.7-1,1.2-1.7,1.6s-1.4,0.6-2.2,0.6c-0.8,0-1.6-0.2-2.3-0.6c-0.7-0.4-1.2-1-1.6-1.6
				c-0.4-0.7-0.6-1.4-0.6-2.3C251.5,114.2,251.7,113.4,252.1,112.7z M253.7,116.4c0.2,0.4,0.6,0.8,1,1s0.9,0.4,1.4,0.4
				c0.5,0,0.9-0.1,1.4-0.4s0.7-0.6,1-1c0.2-0.4,0.3-0.9,0.3-1.4c0-0.5-0.1-1-0.4-1.4c-0.2-0.4-0.6-0.8-1-1s-0.9-0.4-1.4-0.4
				c-0.5,0-1,0.1-1.4,0.4s-0.7,0.6-1,1c-0.2,0.4-0.4,0.9-0.4,1.4C253.3,115.5,253.4,116,253.7,116.4z"/>
		</g>
		<g>
			<path class="st0" d="M281,119c-0.3,0.2-0.7,0.3-1.2,0.4c-0.4,0.1-0.8,0.1-1.1,0.1c-0.9,0-1.8-0.2-2.5-0.5
				c-0.7-0.4-1.3-0.9-1.6-1.5s-0.6-1.4-0.6-2.2c0-1,0.2-1.9,0.6-2.6s1-1.3,1.6-1.6c0.7-0.4,1.4-0.5,2.3-0.5c0.5,0,1,0.1,1.5,0.2
				c0.5,0.1,0.9,0.3,1.2,0.5l-0.6,1.6c-0.2-0.1-0.6-0.2-1-0.4c-0.4-0.1-0.7-0.2-1-0.2c-1,0-1.7,0.2-2.2,0.7
				c-0.5,0.5-0.8,1.2-0.8,2.1c0,0.5,0.1,1,0.4,1.4c0.2,0.4,0.6,0.7,1,0.9c0.4,0.2,1,0.3,1.5,0.3c0.5,0,0.9-0.1,1.2-0.2v-1.1h-1.5
				v-1.7h3.3v3.7C281.6,118.6,281.4,118.8,281,119z"/>
		</g>
	</g>
</g>
<g>
	<path d="M302.8,133.2H0V-0.1h302.8V133.2z M1,132.2h300.8V0.9H1V132.2z"/>
</g>
</svg>
