<?xml version="1.0" encoding="utf-8"?>
<!-- Generator: Adobe Illustrator 19.2.0, SVG Export Plug-In . SVG Version: 6.00 Build 0)  -->
<svg version="1.1" id="Layer_1" xmlns="http://www.w3.org/2000/svg" xmlns:xlink="http://www.w3.org/1999/xlink" x="0px" y="0px"
	 viewBox="0 0 315.9 90.7" style="enable-background:new 0 0 315.9 90.7;" xml:space="preserve">
<style type="text/css">
	.st0{fill:#FFFFFF;}
</style>
<rect x="0.4" y="0.4" width="315.5" height="90.3"/>
<g>
	<path class="st0" d="M54,40.5c1.5,1.4,2.4,3.2,2.4,5.3v20.3H55V46.1c-0.1-1.8-0.8-3.3-2-4.5c-1.2-1.2-2.9-1.9-5.1-2
		c-2,0-3.8,0.5-5.5,1.4c-1.7,0.9-3.1,2.1-4.2,3.7c-1.1,1.6-1.7,3.3-1.8,5.2v16.2H35V46.1c-0.1-1.8-0.8-3.3-2-4.5
		c-1.2-1.2-3-1.9-5.1-2c-2,0-3.9,0.5-5.7,1.4c-1.8,0.9-3.2,2.2-4.2,3.9c-1.1,1.6-1.6,3.5-1.6,5.5v15.8h-1.4V38.9H16l0.2,7.1
		c1-2.4,2.5-4.2,4.6-5.6s4.5-2.1,7.1-2.1c2.2,0,4.1,0.7,5.8,2c1.7,1.3,2.6,3,2.8,5c1-2.2,2.5-3.9,4.6-5.1c2-1.2,4.3-1.8,6.9-1.8
		C50.5,38.3,52.5,39.1,54,40.5z"/>
	<path class="st0" d="M93.2,38.9v27.2h-1.4v-7.8c-1,2.4-2.7,4.4-5.1,5.9c-2.4,1.5-5,2.3-7.9,2.3c-2.5,0-4.9-0.6-7.1-1.9
		c-2.2-1.2-3.9-2.9-5.1-5.1s-1.9-4.5-1.9-7.1c0-2.9,0.6-5.5,1.9-7.6c1.3-2.1,3-3.8,5.1-4.9s4.6-1.7,7.2-1.7c2.8,0,5.3,0.8,7.6,2.3
		c2.3,1.6,4,3.6,5.1,6.1l0.3-7.8H93.2z M85.5,63.7c1.9-1.1,3.5-2.5,4.6-4.4c1.2-1.9,1.7-4,1.7-6.3v-3c-0.6-3-2.1-5.5-4.5-7.5
		c-2.4-2-5.2-3.1-8.3-3.1c-2.4,0-4.5,0.5-6.4,1.6c-1.9,1.1-3.5,2.6-4.6,4.5c-1.1,2-1.7,4.2-1.7,6.8c0,2.4,0.6,4.5,1.7,6.5
		c1.2,2,2.7,3.5,4.6,4.7c1.9,1.2,4.1,1.7,6.4,1.7C81.4,65.3,83.5,64.7,85.5,63.7z"/>
	<path class="st0" d="M130.2,38.9v27.8c0,3.6-1.1,6.6-3.3,9c-2.2,2.4-5.8,3.5-10.9,3.5c-2.1,0-4.1-0.4-6-1.2c-1.9-0.8-4-2.3-6.2-4.5
		l0.8-0.9c2.2,2.1,4.1,3.4,5.9,4.1c1.8,0.7,3.6,1,5.4,1c4.6,0,7.9-1,9.8-3c1.9-2,2.9-4.8,3.1-8.2l0.1-8.4c-1.2,2.5-2.9,4.5-5.3,6
		c-2.4,1.5-5,2.3-7.7,2.3c-2.5,0-4.9-0.6-7.1-1.9c-2.2-1.2-3.9-3-5.1-5.1c-1.2-2.2-1.9-4.5-1.9-7.1c0-2.7,0.6-5.2,1.9-7.3
		c1.3-2.1,3-3.8,5.1-5c2.2-1.2,4.5-1.8,7.1-1.8c2.8,0,5.3,0.8,7.7,2.3c2.3,1.5,4,3.5,5.1,5.9l0.4-7.6H130.2z M122.3,63.6
		c2-1.1,3.5-2.6,4.7-4.5c1.2-1.9,1.8-3.8,1.8-5.9v-3.1c-0.5-3-2-5.6-4.5-7.6c-2.4-2-5.3-3.1-8.4-3.1c-2.4,0-4.5,0.5-6.4,1.6
		c-1.9,1.1-3.5,2.6-4.6,4.6c-1.1,2-1.7,4.2-1.7,6.7c0,2.4,0.6,4.5,1.7,6.5c1.2,2,2.7,3.5,4.6,4.7c1.9,1.2,4.1,1.7,6.4,1.7
		C118.2,65.3,120.4,64.7,122.3,63.6z"/>
	<path class="st0" d="M167.1,38.9v27.2h-1.4v-7.8c-1,2.4-2.7,4.4-5.1,5.9c-2.4,1.5-5,2.3-7.9,2.3c-2.5,0-4.9-0.6-7.1-1.9
		c-2.2-1.2-3.9-2.9-5.1-5.1s-1.9-4.5-1.9-7.1c0-2.9,0.6-5.5,1.9-7.6c1.3-2.1,3-3.8,5.1-4.9s4.6-1.7,7.2-1.7c2.8,0,5.3,0.8,7.6,2.3
		c2.3,1.6,4,3.6,5.1,6.1l0.3-7.8H167.1z M159.4,63.7c1.9-1.1,3.5-2.5,4.6-4.4c1.2-1.9,1.7-4,1.7-6.3v-3c-0.6-3-2.1-5.5-4.5-7.5
		c-2.4-2-5.2-3.1-8.3-3.1c-2.4,0-4.5,0.5-6.4,1.6c-1.9,1.1-3.5,2.6-4.6,4.5c-1.1,2-1.7,4.2-1.7,6.8c0,2.4,0.6,4.5,1.7,6.5
		c1.2,2,2.7,3.5,4.6,4.7c1.9,1.2,4.1,1.7,6.4,1.7C155.3,65.3,157.4,64.7,159.4,63.7z"/>
	<path class="st0" d="M199.2,40.2c2.2,1.3,3.9,3,5.1,5.1c1.2,2.2,1.9,4.5,1.9,7.1c0,2.6-0.6,5-1.9,7.1c-1.2,2.1-3,3.8-5.1,5.1
		c-2.2,1.2-4.5,1.9-7.1,1.9c-2.8,0-5.4-0.7-7.7-2.2c-2.3-1.5-4-3.5-5.2-5.9v20.7h-1.4V38.9h1.4l0.1,7.8c1.2-2.5,2.9-4.5,5.2-6
		c2.3-1.5,4.9-2.3,7.7-2.3C194.6,38.3,197,38.9,199.2,40.2z M198.3,63.5c1.9-1.2,3.5-2.7,4.6-4.7c1.2-2,1.7-4.1,1.7-6.4
		c0-2.4-0.6-4.5-1.7-6.5c-1.2-2-2.7-3.6-4.6-4.7c-1.9-1.2-4.1-1.7-6.4-1.7c-2.3,0-4.4,0.6-6.4,1.7c-1.9,1.2-3.5,2.7-4.7,4.6
		c-1.2,1.9-1.8,4.1-1.8,6.4V53c0,2.2,0.7,4.3,1.8,6.2c1.2,1.9,2.7,3.4,4.6,4.5c1.9,1.1,4,1.7,6.3,1.7
		C194.2,65.3,196.4,64.7,198.3,63.5z"/>
	<path class="st0" d="M214.3,45.3c1.3-2.2,3-3.9,5.1-5.1c2.2-1.3,4.5-1.9,7.1-1.9s5,0.6,7.2,1.9c2.2,1.3,3.9,3,5.2,5.1
		c1.3,2.2,1.9,4.5,1.9,7.1c0,2.6-0.6,5-1.9,7.1c-1.3,2.2-3,3.9-5.2,5.1c-2.2,1.2-4.6,1.9-7.2,1.9s-5-0.6-7.2-1.8
		c-2.2-1.2-3.9-2.9-5.1-5.1c-1.2-2.2-1.9-4.6-1.9-7.2C212.4,49.8,213.1,47.4,214.3,45.3z M215.6,58.9c1.1,2,2.7,3.5,4.6,4.7
		c1.9,1.2,4.1,1.7,6.4,1.7c2.3,0,4.4-0.6,6.4-1.7c1.9-1.2,3.5-2.7,4.6-4.7c1.2-2,1.7-4.1,1.7-6.5c0-2.3-0.6-4.5-1.7-6.4
		c-1.2-2-2.7-3.6-4.6-4.7c-1.9-1.2-4.1-1.7-6.4-1.7c-2.4,0-4.5,0.6-6.5,1.8c-2,1.2-3.5,2.8-4.6,4.8c-1.1,2-1.7,4.1-1.7,6.2
		C213.9,54.7,214.4,56.9,215.6,58.9z"/>
	<path class="st0" d="M255.9,49.9l-5.2,4.9v11.2h-1.4V11.9h1.4v41.3l15.9-14.8l0.9,0.8L257,49l12.5,17.1h-1.7L255.9,49.9z"/>
	<path class="st0" d="M301.4,38.9v27.2H300v-7.8c-1,2.4-2.7,4.4-5.1,5.9c-2.4,1.5-5,2.3-7.9,2.3c-2.5,0-4.9-0.6-7.1-1.9
		c-2.2-1.2-3.9-2.9-5.1-5.1c-1.2-2.1-1.9-4.5-1.9-7.1c0-2.9,0.6-5.5,1.9-7.6c1.3-2.1,3-3.8,5.1-4.9c2.2-1.1,4.6-1.7,7.2-1.7
		c2.8,0,5.3,0.8,7.6,2.3c2.3,1.6,4,3.6,5.1,6.1l0.3-7.8H301.4z M293.6,63.7c1.9-1.1,3.5-2.5,4.6-4.4c1.2-1.9,1.7-4,1.7-6.3v-3
		c-0.6-3-2.1-5.5-4.5-7.5c-2.4-2-5.2-3.1-8.3-3.1c-2.4,0-4.5,0.5-6.4,1.6c-1.9,1.1-3.5,2.6-4.6,4.5c-1.1,2-1.7,4.2-1.7,6.8
		c0,2.4,0.6,4.5,1.7,6.5c1.2,2,2.7,3.5,4.6,4.7c1.9,1.2,4.1,1.7,6.4,1.7C289.5,65.3,291.7,64.7,293.6,63.7z"/>
</g>
</svg>
